- 
http://www.Speed.Cd 
       
http://www.Speed.Cd      fast  and The Hottest Private Tracker on the net

(((--Submit for invite!!--)))

Please Seed back to make the speed Faster!!!

------------------nfo--------------------------
-[img]http://img255.imageshack.us/img255/3473/freerunner.jpg[/img]

Freerunner.2011.BRRip.XviD.AC3-EMBER
 
http://www.imdb.com/title/tt1579232/

Plot
With a ticking bomb locked to his neck, a young freerunner races against the clock and all types of baddies to 
get from one end of the city to the other to save himself and his girlfriend.

Source                           : 720p CHD Thanks

General
Format                           : AVI
Format/Info                      : Audio Video Interleave
File size                        : 1.37 GiB
Duration                         : 1h 27mn
Overall bit rate                 : 2 238 Kbps
Writing application              : VirtualDubMod 1.5.10.2 (build 2540/release)
Writing library                  : VirtualDubMod build 2540/release

Video
ID                               : 0
Format                           : MPEG-4 Visual
Format profile                   : Advanced Simple@L5
Format settings, BVOP            : 2
Format settings, QPel            : No
Format settings, GMC             : No warppoints
Format settings, Matrix          : Default (H.263)
Muxing mode                      : Packed bitstream
Codec ID                         : XVID
Codec ID/Hint                    : XviD
Duration                         : 1h 27mn
Bit rate                         : 1 845 Kbps
Width                            : 720 pixels
Height                           : 304 pixels
Display aspect ratio             : 2.35:1
Frame rate                       : 23.976 fps
Color space                      : YUV
Chroma subsampling               : 4:2:0
Bit depth                        : 8 bits
Scan type                        : Progressive
Compression mode                 : Lossy
Bits/(Pixel*Frame)               : 0.352
Stream size                      : 1.13 GiB (82%)
Writing library                  : XviD 64

Audio
ID                               : 1
Format                           : AC-3
Format/Info                      : Audio Coding 3
Mode extension                   : CM (complete main)
Codec ID                         : 2000
Duration                         : 1h 27mn
Bit rate mode                    : Constant
Bit rate                         : 384 Kbps
Channel(s)                       : 6 channels
Channel positions                : Front: L C R, Side: L R, LFE
Sampling rate                    : 48.0 KHz
Bit depth                        : 16 bits
Compression mode                 : Lossy
Stream size                      : 241 MiB (17%)
Alignment                        : Split accross interleaves
Interleave, duration             : 42 ms (1.00 video frame)
Interleave, preload duration     : 500 ms

Notes
Resized, added denoiser and weak degrainer to remove the excess grain as it seemed overly grainy imo
tweaked levels slightly and added touch of color, and added sharpness

Screens
[img]http://img855.imageshack.us/img855/4936/18226416.png[/img]
[img]http://img535.imageshack.us/img535/5190/65625242.png[/img]
[img]http://img690.imageshack.us/img690/1206/74803277.png[/img]
[img]http://img202.imageshack.us/img202/1892/82416970.png[/img]


Greetz to 
SHiRK, SHK, LKRG, UnKnOwN, IMAGiNE, SiC, BHRG, TaRiQ786, FLAWL3SS, Rx, Hive-CM8

And to all other groups past and present

Got something to offer?

ember@hushmail.me